<svg width="292.4" height="292.4" xmlns="http://www.w3.org/2000/svg">

 <g>
  <title>background</title>
  <rect fill="none" id="canvas_background" height="602" width="802" y="-1" x="-1"/>
 </g>
 <g>
  <title>Layer 1</title>
  <path id="svg_1" d="m287,69.4a17.6,17.6 0 0 0 -13,-5.4l-255.6,0c-5,0 -9.3,1.8 -12.9,5.4a17.6,17.6 0 0 0 -5.5,12.8c0,5 1.8,9.3 5.4,12.9l128,127.9c3.6,3.6 7.8,5.4 12.8,5.4s9.2,-1.8 12.8,-5.4l128,-128c3.5,-3.5 5.4,-7.8 5.4,-12.8c0,-5 -1.9,-9.2 -5.5,-12.8l0.1,0z" fill="#f65261"/>
 </g>
</svg>