<svg width="122.88" height="122.88" xmlns="http://www.w3.org/2000/svg">

 <g>
  <title>background</title>
  <rect fill="none" id="canvas_background" height="602" width="802" y="-1" x="-1"/>
 </g>
 <g>
  <title>Layer 1</title>
  <g id="svg_1">
   <path fill="#f65261" id="svg_2" d="m81.61,4.73c0,-2.61 2.58,-4.73 5.77,-4.73s5.77,2.12 5.77,4.73l0,20.72c0,2.61 -2.58,4.73 -5.77,4.73s-5.77,-2.12 -5.77,-4.73l0,-20.72l0,0zm-3.65,76.03c1.83,0 3.32,1.49 3.32,3.32c0,1.83 -1.49,3.32 -3.32,3.32l-12.95,-0.04l-0.04,12.93c0,1.83 -1.49,3.32 -3.32,3.32c-1.83,0 -3.32,-1.49 -3.32,-3.32l0.04,-12.94l-12.93,-0.05c-1.83,0 -3.32,-1.49 -3.32,-3.32c0,-1.83 1.49,-3.32 3.32,-3.32l12.94,0.04l0.04,-12.93c0,-1.83 1.49,-3.32 3.32,-3.32c1.83,0 3.32,1.49 3.32,3.32l-0.04,12.95l12.94,0.04l0,0zm-48.35,-76.03c0,-2.61 2.58,-4.73 5.77,-4.73s5.77,2.12 5.77,4.73l0,20.72c0,2.61 -2.58,4.73 -5.77,4.73s-5.77,-2.12 -5.77,-4.73l0,-20.72l0,0zm-23.21,40.59l110.08,0l0,-23.85c0,-0.8 -0.33,-1.53 -0.86,-2.07c-0.53,-0.53 -1.26,-0.86 -2.07,-0.86l-10.55,0c-1.77,0 -3.2,-1.43 -3.2,-3.2c0,-1.77 1.43,-3.2 3.2,-3.2l10.55,0c2.57,0 4.9,1.05 6.59,2.74c1.69,1.69 2.74,4.02 2.74,6.59l0,27.06l0,65.03c0,2.57 -1.05,4.9 -2.74,6.59c-1.69,1.69 -4.02,2.74 -6.59,2.74l-104.22,0c-2.57,0 -4.9,-1.05 -6.59,-2.74c-1.69,-1.7 -2.74,-4.03 -2.74,-6.6l0,-65.02l0,-27.06c0,-2.57 1.05,-4.9 2.74,-6.59c1.69,-1.69 4.02,-2.74 6.59,-2.74l11.27,0c1.77,0 3.2,1.43 3.2,3.2c0,1.77 -1.43,3.2 -3.2,3.2l-11.27,0c-0.8,0 -1.53,0.33 -2.07,0.86c-0.53,0.53 -0.86,1.26 -0.86,2.07l0,23.85l0,0zm110.08,6.41l-110.08,0l0,61.82c0,0.8 0.33,1.53 0.86,2.07c0.53,0.53 1.26,0.86 2.07,0.86l104.22,0c0.8,0 1.53,-0.33 2.07,-0.86c0.53,-0.53 0.86,-1.26 0.86,-2.07l0,-61.82l0,0zm-66.05,-33.19c-1.77,0 -3.2,-1.43 -3.2,-3.2c0,-1.77 1.43,-3.2 3.2,-3.2l21.49,0c1.77,0 3.2,1.43 3.2,3.2c0,1.77 -1.43,3.2 -3.2,3.2l-21.49,0l0,0z"/>
  </g>
 </g>
</svg>