<svg xmlns="http://www.w3.org/2000/svg" xmlns:xlink="http://www.w3.org/1999/xlink" version="1.1" style="" xml:space="preserve" width="512" height="512"><rect id="backgroundrect" width="100%" height="100%" x="0" y="0" fill="none" stroke="none"/>
















<g class="currentLayer" style=""><title>Layer 1</title><g id="svg_1" class="selected" fill="#f65261" fill-opacity="1">
	<g id="svg_2" fill="#f65261" fill-opacity="1">
		<path d="M447.615,64.386C406.095,22.866,350.892,0,292.175,0s-113.92,22.866-155.439,64.386    C95.217,105.905,72.35,161.108,72.35,219.824c0,53.683,19.124,104.421,54.132,144.458L4.399,486.366    c-5.864,5.864-5.864,15.371,0,21.236C7.331,510.533,11.174,512,15.016,512s7.686-1.466,10.617-4.399l122.084-122.083    c40.037,35.007,90.775,54.132,144.458,54.132c58.718,0,113.919-22.866,155.439-64.386c41.519-41.519,64.385-96.722,64.385-155.439    S489.134,105.905,447.615,64.386z M426.379,354.029c-74.001,74-194.406,74-268.407,0c-74-74-74-194.407,0-268.407    c37.004-37.004,85.596-55.5,134.204-55.5c48.596,0,97.208,18.505,134.204,55.5C500.378,159.621,500.378,280.028,426.379,354.029z" id="svg_3" fill="#f65261" fill-opacity="1"/>
	</g>
</g><g id="svg_4">
</g><g id="svg_5">
</g><g id="svg_6">
</g><g id="svg_7">
</g><g id="svg_8">
</g><g id="svg_9">
</g><g id="svg_10">
</g><g id="svg_11">
</g><g id="svg_12">
</g><g id="svg_13">
</g><g id="svg_14">
</g><g id="svg_15">
</g><g id="svg_16">
</g><g id="svg_17">
</g><g id="svg_18">
</g></g></svg>